<?xml version="1.0" encoding="UTF-8" standalone="no"?>
<svg
   width="36"
   height="36"
   viewBox="0 0 36 36"
   version="1.1"
   id="svg653"
   sodipodi:docname="small-unchecked-symbolic@2.svg"
   inkscape:version="1.4.2 (ebf0e940d0, 2025-05-08)"
   xmlns:inkscape="http://www.inkscape.org/namespaces/inkscape"
   xmlns:sodipodi="http://sodipodi.sourceforge.net/DTD/sodipodi-0.dtd"
   xmlns="http://www.w3.org/2000/svg"
   xmlns:svg="http://www.w3.org/2000/svg">
  <defs
     id="defs657" />
  <sodipodi:namedview
     id="namedview655"
     pagecolor="#ffffff"
     bordercolor="#666666"
     borderopacity="1.0"
     inkscape:showpageshadow="2"
     inkscape:pageopacity="0.0"
     inkscape:pagecheckerboard="0"
     inkscape:deskcolor="#d1d1d1"
     showgrid="true"
     inkscape:zoom="20.85965"
     inkscape:cx="11.097981"
     inkscape:cy="10.33095"
     inkscape:window-width="1920"
     inkscape:window-height="1004"
     inkscape:window-x="0"
     inkscape:window-y="0"
     inkscape:window-maximized="1"
     inkscape:current-layer="svg653">
    <inkscape:grid
       type="xygrid"
       id="grid778"
       originx="0"
       originy="0"
       spacingy="1"
       spacingx="1"
       units="px" />
  </sodipodi:namedview>
  <path
     id="path776"
     style="stroke-width:2"
     d="M 18 0 A 18 18 0 0 0 0 18 A 18 18 0 0 0 18 36 A 18 18 0 0 0 36 18 A 18 18 0 0 0 18 0 z M 18 2 A 16 16 0 0 1 34 18 A 16 16 0 0 1 18 34 A 16 16 0 0 1 2 18 A 16 16 0 0 1 18 2 z " />
</svg>
